<svg width="63" height="17" viewBox="0 0 63 17" fill="none" xmlns="http://www.w3.org/2000/svg">
<path d="M4.62322 16.1918C3.76622 16.1918 2.99917 15.9716 2.32209 15.5312C1.645 15.0909 1.10997 14.4517 0.716975 13.6136C0.323982 12.7756 0.127486 11.7576 0.127486 10.5597C0.127486 9.34754 0.326349 8.32481 0.724077 7.49148C1.12654 6.65341 1.66868 6.02131 2.3505 5.59517C3.03232 5.1643 3.79226 4.94886 4.63033 4.94886C5.26953 4.94886 5.7951 5.05777 6.20703 5.27557C6.61896 5.48864 6.94567 5.74669 7.18714 6.04972C7.42862 6.34801 7.61565 6.62973 7.74822 6.89489H7.85476V1.45455H10.4329V16H7.90447V14.2812H7.74822C7.61565 14.5464 7.42389 14.8281 7.17294 15.1264C6.92199 15.42 6.59055 15.6709 6.17862 15.8793C5.76669 16.0876 5.24822 16.1918 4.62322 16.1918ZM5.34055 14.0824C5.88506 14.0824 6.34908 13.9356 6.7326 13.642C7.11612 13.3437 7.40732 12.9295 7.60618 12.3991C7.80504 11.8688 7.90447 11.2509 7.90447 10.5455C7.90447 9.83996 7.80504 9.2268 7.60618 8.70597C7.41205 8.18513 7.12322 7.7803 6.7397 7.49148C6.36091 7.20265 5.89453 7.05824 5.34055 7.05824C4.76764 7.05824 4.28942 7.20739 3.90589 7.50568C3.52237 7.80398 3.23355 8.21591 3.03942 8.74148C2.84529 9.26705 2.74822 9.86837 2.74822 10.5455C2.74822 11.2273 2.84529 11.8357 3.03942 12.3707C3.23828 12.901 3.52947 13.3201 3.913 13.6278C4.30125 13.9309 4.77711 14.0824 5.34055 14.0824ZM18.0021 16.2131C16.9084 16.2131 15.9638 15.9858 15.1683 15.5312C14.3776 15.072 13.7692 14.4233 13.343 13.5852C12.9169 12.7424 12.7038 11.7505 12.7038 10.6094C12.7038 9.48722 12.9169 8.50237 13.343 7.65483C13.7739 6.80256 14.3752 6.13968 15.147 5.66619C15.9188 5.18797 16.8255 4.94886 17.8672 4.94886C18.5395 4.94886 19.174 5.05777 19.7706 5.27557C20.3719 5.48864 20.9022 5.82008 21.3615 6.26989C21.8255 6.7197 22.1901 7.29261 22.4553 7.98864C22.7204 8.67992 22.853 9.50379 22.853 10.4602V11.2486H13.9112V9.51562H20.3885C20.3838 9.0232 20.2772 8.58523 20.0689 8.2017C19.8606 7.81345 19.5694 7.50805 19.1953 7.28551C18.826 7.06297 18.3951 6.9517 17.9027 6.9517C17.3771 6.9517 16.9155 7.07955 16.5178 7.33523C16.12 7.58617 15.8099 7.91761 15.5874 8.32955C15.3696 8.73674 15.2583 9.18419 15.2536 9.67188V11.1847C15.2536 11.8191 15.3696 12.3636 15.6016 12.8182C15.8336 13.268 16.1579 13.6136 16.5746 13.8551C16.9912 14.0919 17.4789 14.2102 18.0376 14.2102C18.4117 14.2102 18.7502 14.1581 19.0533 14.054C19.3563 13.9451 19.6191 13.7865 19.8416 13.5781C20.0642 13.3698 20.2322 13.1117 20.3459 12.804L22.7464 13.0739C22.5949 13.7083 22.3061 14.2623 21.88 14.7358C21.4586 15.2045 20.9188 15.5691 20.2607 15.8295C19.6025 16.0852 18.8497 16.2131 18.0021 16.2131ZM34.4599 5.09091L30.5749 16H27.734L23.8491 5.09091H26.5906L29.0977 13.1946H29.2113L31.7255 5.09091H34.4599ZM38.81 1.45455V16H36.239V1.45455H38.81ZM41.4538 16V5.09091H44.0249V16H41.4538ZM42.7464 3.54261C42.3393 3.54261 41.9889 3.40767 41.6953 3.13778C41.4018 2.86316 41.255 2.53409 41.255 2.15057C41.255 1.76231 41.4018 1.43324 41.6953 1.16335C41.9889 0.88873 42.3393 0.75142 42.7464 0.75142C43.1584 0.75142 43.5088 0.88873 43.7976 1.16335C44.0911 1.43324 44.2379 1.76231 44.2379 2.15057C44.2379 2.53409 44.0911 2.86316 43.7976 3.13778C43.5088 3.40767 43.1584 3.54261 42.7464 3.54261ZM46.7823 16V1.45455H49.3533V6.89489H49.4599C49.5924 6.62973 49.7795 6.34801 50.021 6.04972C50.2624 5.74669 50.5891 5.48864 51.0011 5.27557C51.413 5.05777 51.9386 4.94886 52.5778 4.94886C53.4206 4.94886 54.1805 5.1643 54.8576 5.59517C55.5394 6.02131 56.0792 6.65341 56.4769 7.49148C56.8794 8.32481 57.0806 9.34754 57.0806 10.5597C57.0806 11.7576 56.8841 12.7756 56.4911 13.6136C56.0981 14.4517 55.5631 15.0909 54.886 15.5312C54.2089 15.9716 53.4419 16.1918 52.5849 16.1918C51.9599 16.1918 51.4414 16.0876 51.0295 15.8793C50.6175 15.6709 50.2861 15.42 50.0352 15.1264C49.7889 14.8281 49.5972 14.5464 49.4599 14.2812H49.3107V16H46.7823ZM49.3036 10.5455C49.3036 11.2509 49.4031 11.8688 49.6019 12.3991C49.8055 12.9295 50.0967 13.3437 50.4755 13.642C50.859 13.9356 51.323 14.0824 51.8675 14.0824C52.4357 14.0824 52.9116 13.9309 53.2951 13.6278C53.6786 13.3201 53.9674 12.901 54.1616 12.3707C54.3604 11.8357 54.4599 11.2273 54.4599 10.5455C54.4599 9.86837 54.3628 9.26705 54.1687 8.74148C53.9746 8.21591 53.6857 7.80398 53.3022 7.50568C52.9187 7.20739 52.4405 7.05824 51.8675 7.05824C51.3183 7.05824 50.8519 7.20265 50.4684 7.49148C50.0849 7.7803 49.7937 8.18513 49.5948 8.70597C49.4007 9.2268 49.3036 9.83996 49.3036 10.5455Z" fill="black"/>
<path d="M60.8501 16.1562C60.4193 16.1562 60.05 16.0047 59.7422 15.7017C59.4344 15.3987 59.2829 15.0294 59.2876 14.5938C59.2829 14.1676 59.4344 13.803 59.7422 13.5C60.05 13.197 60.4193 13.0455 60.8501 13.0455C61.2668 13.0455 61.629 13.197 61.9368 13.5C62.2493 13.803 62.4079 14.1676 62.4126 14.5938C62.4079 14.8826 62.3321 15.1454 62.1854 15.3821C62.0433 15.6188 61.8539 15.8082 61.6172 15.9503C61.3852 16.0876 61.1295 16.1562 60.8501 16.1562Z" fill="#E8139E"/>
</svg>
